<svg xmlns="http://www.w3.org/2000/svg" style="display:none">

  <symbol id="youtube" viewBox="0 0 576 512"><path d="M549.655 124.083c-6.281-23.65-24.787-42.276-48.284-48.597C458.781 64 288 64 288 64S117.22 64 74.629 75.486c-23.497 6.322-42.003 24.947-48.284 48.597-11.412 42.867-11.412 132.305-11.412 132.305s0 89.438 11.412 132.305c6.281 23.65 24.787 41.5 48.284 47.821C117.22 448 288 448 288 448s170.78 0 213.371-11.486c23.497-6.321 42.003-24.171 48.284-47.821 11.412-42.867 11.412-132.305 11.412-132.305s0-89.438-11.412-132.305zm-317.51 213.508V175.185l142.739 81.205-142.739 81.201z"/></symbol>

  <symbol id="twitter" viewBox="0 0 512 512"><path d="M459.37 151.716c.325 4.548.325 9.097.325 13.645 0 138.72-105.583 298.558-298.558 298.558-59.452 0-114.68-17.219-161.137-47.106 8.447.974 16.568 1.299 25.34 1.299 49.055 0 94.213-16.568 130.274-44.832-46.132-.975-84.792-31.188-98.112-72.772 6.498.974 12.995 1.624 19.818 1.624 9.421 0 18.843-1.3 27.614-3.573-48.081-9.747-84.143-51.98-84.143-102.985v-1.299c13.969 7.797 30.214 12.67 47.431 13.319-28.264-18.843-46.781-51.005-46.781-87.391 0-19.492 5.197-37.36 14.294-52.954 51.655 63.675 129.3 105.258 216.365 109.807-1.624-7.797-2.599-15.918-2.599-24.04 0-57.828 46.782-104.934 104.934-104.934 30.213 0 57.502 12.67 76.67 33.137 23.715-4.548 46.456-13.32 66.599-25.34-7.798 24.366-24.366 44.833-46.132 57.827 21.117-2.273 41.584-8.122 60.426-16.243-14.292 20.791-32.161 39.308-52.628 54.253z"/></symbol>

  <symbol id="instagram" viewBox="0 0 448 512"><path d="M224.1 141c-63.6 0-114.9 51.3-114.9 114.9s51.3 114.9 114.9 114.9S339 319.5 339 255.9 287.7 141 224.1 141zm0 189.6c-41.1 0-74.7-33.5-74.7-74.7s33.5-74.7 74.7-74.7 74.7 33.5 74.7 74.7-33.6 74.7-74.7 74.7zm146.4-194.3c0 14.9-12 26.8-26.8 26.8-14.9 0-26.8-12-26.8-26.8s12-26.8 26.8-26.8 26.8 12 26.8 26.8zm76.1 27.2c-1.7-35.9-9.9-67.7-36.2-93.9-26.2-26.2-58-34.4-93.9-36.2-37-2.1-147.9-2.1-184.9 0-35.8 1.7-67.6 9.9-93.9 36.1s-34.4 58-36.2 93.9c-2.1 37-2.1 147.9 0 184.9 1.7 35.9 9.9 67.7 36.2 93.9s58 34.4 93.9 36.2c37 2.1 147.9 2.1 184.9 0 35.9-1.7 67.7-9.9 93.9-36.2 26.2-26.2 34.4-58 36.2-93.9 2.1-37 2.1-147.8 0-184.8zM398.8 388c-7.8 19.6-22.9 34.7-42.6 42.6-29.5 11.7-99.5 9-132.1 9s-102.7 2.6-132.1-9c-19.6-7.8-34.7-22.9-42.6-42.6-11.7-29.5-9-99.5-9-132.1s-2.6-102.7 9-132.1c7.8-19.6 22.9-34.7 42.6-42.6 29.5-11.7 99.5-9 132.1-9s102.7-2.6 132.1 9c19.6 7.8 34.7 22.9 42.6 42.6 11.7 29.5 9 99.5 9 132.1s2.7 102.7-9 132.1z"/></symbol>

  <symbol id="facebook" viewBox="0 0 264 512"><path d="M76.7 512V283H0v-91h76.7v-71.7C76.7 42.4 124.3 0 193.8 0c33.3 0 61.9 2.5 70.2 3.6V85h-48.2c-37.8 0-45.1 18-45.1 44.3V192H256l-11.7 91h-73.6v229"/></symbol>

  <symbol id="letter" viewBox="0 0 27 27"><path d="M22.48,20.8a1.67,1.67,0,0,1-1.68,1.68H6.2A1.67,1.67,0,0,1,4.52,20.8V11.57a1.59,1.59,0,0,1,.63-1.33Q6.59,9.12,10.94,6l.31-.24a6.67,6.67,0,0,1,1.13-.77,2.23,2.23,0,0,1,1.12-.42,2.23,2.23,0,0,1,1.12.42,6.67,6.67,0,0,1,1.13.77l.31.24q4.35,3.17,5.79,4.29a1.59,1.59,0,0,1,.63,1.33Zm-2.31-6.91a.42.42,0,0,0-.18-.11.23.23,0,0,0-.21,0l-4,3a7.33,7.33,0,0,1-1.13.77A2.23,2.23,0,0,1,13.5,18a2.23,2.23,0,0,1-1.12-.42,7.33,7.33,0,0,1-1.13-.77l-4-3a.23.23,0,0,0-.21,0,.42.42,0,0,0-.18.11l-.31.49a.2.2,0,0,0-.06.19.29.29,0,0,0,.09.19l4.07,3a8.84,8.84,0,0,0,1.34.91,3.09,3.09,0,0,0,1.54.5,3.09,3.09,0,0,0,1.54-.5,8.84,8.84,0,0,0,1.34-.91l4.07-3a.29.29,0,0,0,.09-.19.2.2,0,0,0-.06-.19Z"/></symbol>

  <symbol id="phone" viewBox="0 0 27 27"><path d="M22.3,5.67a.86.86,0,0,1,.18.52,16.09,16.09,0,0,1-2.21,8.22,16.45,16.45,0,0,1-5.86,5.86,16.09,16.09,0,0,1-8.22,2.21.86.86,0,0,1-.52-.18.62.62,0,0,1-.28-.49l-.85-3.65a.85.85,0,0,1,.07-.56A.78.78,0,0,1,5,17.21L9,15.53a.84.84,0,0,1,.52,0,.68.68,0,0,1,.46.3l1.72,2.1a12.32,12.32,0,0,0,3.67-2.56,13,13,0,0,0,2.54-3.65l-2.1-1.76a.85.85,0,0,1-.29-.43,1,1,0,0,1,0-.55L17.21,5a.82.82,0,0,1,.39-.39.85.85,0,0,1,.56-.07l3.65.85A.62.62,0,0,1,22.3,5.67Z"/></symbol>
  
  <symbol id="mobile" viewBox="0 0 27 27"><path d="M17.45,3.51A1.68,1.68,0,0,1,18,4.75V19.92a1.74,1.74,0,0,1-1.75,1.75H8a1.74,1.74,0,0,1-1.75-1.75V4.75A1.74,1.74,0,0,1,8,3h8.17A1.68,1.68,0,0,1,17.45,3.51ZM16.21,5.19a.44.44,0,0,0-.44-.44H8.48a.42.42,0,0,0-.31.13A.39.39,0,0,0,8,5.19V16.56a.39.39,0,0,0,.13.31.42.42,0,0,0,.31.13h7.29a.44.44,0,0,0,.44-.44ZM13,20.16a1.13,1.13,0,0,0,.34-.82,1.11,1.11,0,0,0-.34-.82,1.1,1.1,0,0,0-.82-.35,1.08,1.08,0,0,0-.82.35,1.12,1.12,0,0,0-.35.82,1.14,1.14,0,0,0,.35.82,1.11,1.11,0,0,0,.82.34A1.13,1.13,0,0,0,13,20.16Z"/></symbol>

</svg>
