<?xml version="1.0" encoding="utf-8"?>
<!-- Generator: Adobe Illustrator 22.1.0, SVG Export Plug-In . SVG Version: 6.00 Build 0)  -->
<svg version="1.1" id="logo-inside-dynamic" xmlns="http://www.w3.org/2000/svg" xmlns:xlink="http://www.w3.org/1999/xlink"
	 x="0px" y="0px" viewBox="0 0 225 73.8" style="enable-background:new 0 0 225 73.8;" xml:space="preserve">
<style type="text/css">
	.st0{fill:#000;}
	.st1{font-family:'Roboto-Regular';}
	.st2{font-size:10px;}
</style>
<g id="Ebene_1">
	<path id="Path_13" class="st0" d="M19.4,71.9l3.1-0.1c0,0,8.9-4.3,13.5-16.2c0,0,12.7,0.2,17.4-6.3c0,0-10.5,5.3-18.5,3.2
		C34.8,52.6,30.2,68,19.4,71.9z"/>
	<path id="Path_14" class="st0" d="M59.7,57.9c0,0-13.2,17.5-40.1,14.5l2.1,0.9c13.8,2.3,27.9-2.8,37-13.5L59.7,57.9z"/>
	<path id="Path_15" class="st0" d="M37.7,64.6c0,0-2,5.9-6.7,8h1.2c0,0,3.8-1.6,5.5-7.1"/>
	<path id="Path_16" class="st0" d="M44.1,62.2c0,0-0.2,6.2-4.1,9.6l1.2-0.4c0,0,3.1-2.7,3.2-8.4"/>
	<path id="Path_17" class="st0" d="M49.3,58.9c0,0,1.3,5.4-1.6,9.5l1-0.7c1.5-2.5,1.8-5.4,1-8.2"/>
	<path id="Path_18" class="st0" d="M54.1,57.3c0,0,1.5,3.8,0,6.9l0.6-0.6c0.7-1.9,0.7-4.1-0.2-5.9"/>
	<path id="Path_19" class="st0" d="M0.6,28.7l1,2.9c0,0,6.8,7.2,19.5,7.9c0,0,3.7,12.1,11.3,14.6c0,0-8.2-8.4-8.7-16.7
		C23.7,37.5,7.7,37.8,0.6,28.7z"/>
	<path id="Path_20" class="st0" d="M26.2,62.7c0,0-20.7-7.3-26-33.8L0,31.2c2,13.9,11.2,25.7,24.1,31.1L26.2,62.7z"/>
	<path id="Path_21" class="st0" d="M13.2,43.9c0,0-6.2-0.1-9.6-4L3.9,41c0,0,2.7,3.1,8.4,3.1"/>
	<path id="Path_22" class="st0" d="M17.4,49.2c0,0-6,1.7-10.4-1l0.7,1c0,0,3.5,2.1,9,0.5"/>
	<path id="Path_23" class="st0" d="M22.1,53.2c0,0-4.7,2.9-9.5,1.4l1,0.7c2.8,0.6,5.7,0.1,8.1-1.5"/>
	<path id="Path_24" class="st0" d="M25.1,57.3c0,0-3.1,2.6-6.6,2.1l0.7,0.4c2.1,0.1,4.1-0.6,5.6-2"/>
	<path id="Path_25" class="st0" d="M39.7,0.4L37,1.9c0,0-5.8,8.1-4,20.7c0,0-11.2,6-12.1,13.9c0,0,6.7-9.7,14.6-11.8
		C35.5,24.7,32.1,9.1,39.7,0.4z"/>
	<path id="Path_26" class="st0" d="M11.3,32.1c0,0,3.1-21.7,28.1-32.1l-2.3,0.2C23.8,4.9,14,16.2,11.2,30L11.3,32.1z"/>
	<path id="Path_27" class="st0" d="M27.2,15.6c0,0-1.1-6.1,2-10.2l-1,0.6c0,0-2.5,3.2-1.4,8.9"/>
	<path id="Path_28" class="st0" d="M22.8,20.9c0,0-2.8-5.6-1.1-10.4L21,11.4c0,0-1.4,3.8,1.3,8.9"/>
	<path id="Path_29" class="st0" d="M19.8,26.2c0,0-3.7-4.1-3.2-9.1l-0.5,1.1c-0.1,2.9,1,5.6,3.1,7.6"/>
	<path id="Path_30" class="st0" d="M16.4,30c0,0-3.1-2.6-3.3-6l-0.3,0.8c0.3,2,1.4,3.9,3.1,5.1"/>
	<path id="Path_31" class="st0" d="M76.8,22.9l-2.5-1.8c0,0-9.7-2-20.5,4.8c0,0-10-7.8-17.6-5.5c0,0,11.6,2.2,16.7,8.6
		C52.8,29,65.8,19.6,76.8,22.9z"/>
	<path id="Path_32" class="st0" d="M36.2,9.8c0,0,21.1-6,40.8,12.6l-1.2-2C66.2,10.3,51.9,5.9,38.2,9L36.2,9.8z"/>
	<path id="Path_33" class="st0" d="M57.8,17.7c0,0,5.2-3.5,10.2-2.3l-1-0.7c0,0-4-0.9-8.7,2.3"/>
	<path id="Path_34" class="st0" d="M51.2,15.9c0,0,3.9-4.8,9-5.2l-1.2-0.4c0,0-4.1,0.3-7.6,4.8"/>
	<path id="Path_35" class="st0" d="M45.1,15.3c0,0,2.2-5.1,7-6.6l-1.2,0c-2.6,1.1-4.7,3.2-5.7,5.9"/>
	<path id="Path_36" class="st0" d="M40.3,13.7c0,0,1.1-3.9,4.2-5.5l-0.8,0.1c-1.7,1.1-3,2.8-3.4,4.9"/>
	<path id="Path_37" class="st0" d="M64.1,68.2l1.1-2.9c0,0-0.6-9.9-9.9-18.6c0,0,4.9-11.7,0.8-18.5c0,0,0.9,11.8-4,18.4
		C52,46.6,64.5,56.7,64.1,68.2z"/>
	<path id="Path_38" class="st0" d="M66.3,25.7c0,0,11.2,18.8-1.8,42.6l1.6-1.6c7.4-11.9,8-26.9,1.5-39.3L66.3,25.7z"/>
	<path id="Path_39" class="st0" d="M64.2,48.5c0,0,4.7,4.1,4.8,9.2l0.4-1.1c0,0-0.1-4.1-4.5-7.8"/>
	<path id="Path_40" class="st0" d="M64.3,41.7c0,0,5.7,2.6,7.3,7.4l0.1-1.2c0,0-1.3-3.9-6.6-6.1"/>
	<path id="Path_41" class="st0" d="M63.3,35.6c0,0,5.5,0.9,8.2,5l-0.3-1.2c-1.7-2.3-4.4-3.7-7.2-4"/>
	<path id="Path_42" class="st0" d="M63.6,30.6c0,0,4,0,6.4,2.6l-0.3-0.8c-1.5-1.4-3.5-2.1-5.6-2"/>
	<path id="Path_43" class="st0" d="M96.2,6.6V9h-2.4V6.6H96.2z M93.8,12.1h2.4v16.8h-2.4V12.1z"/>
	<path id="Path_44" class="st0" d="M116.6,15.6v13.3h-2.4V15.6c0-0.6-0.5-1.1-1.1-1.1h-10.1c-0.6,0-1.1,0.5-1.2,1.1v13.3h-2.4V12.1
		H113C115,12.1,116.6,13.6,116.6,15.6C116.6,15.6,116.6,15.6,116.6,15.6z"/>
	<path id="Path_45" class="st0" d="M136.6,15.8h-2.4v-0.2c0-0.6-0.5-1.1-1.1-1.1h-10.1c-0.6,0-1.1,0.5-1.1,1.1v2.6
		c0,0.6,0.5,1.1,1.1,1.1h10.1c1.9,0,3.5,1.5,3.5,3.5c0,0,0,0,0,0v2.6c0,1.9-1.6,3.5-3.5,3.5h-10.1c-1.9,0-3.5-1.6-3.5-3.5
		c0,0,0,0,0,0v-0.2h2.4v0.2c0,0.6,0.5,1.1,1.1,1.1h10.1c0.6,0,1.1-0.5,1.1-1.1v-2.5c0-0.6-0.5-1.1-1.1-1.1h-10.1
		c-1.9,0-3.5-1.6-3.5-3.5c0,0,0,0,0,0v-2.6c0-1.9,1.6-3.5,3.5-3.5c0,0,0,0,0,0h10.1c1.9,0,3.5,1.5,3.5,3.5c0,0,0,0,0,0V15.8z"/>
	<path id="Path_46" class="st0" d="M141.8,6.6V9h-2.3V6.6H141.8z M139.5,12.1h2.4v16.8h-2.4V12.1z"/>
	<path id="Path_47" class="st0" d="M161.8,6.6v22.3h-13.6c-1.9,0-3.5-1.5-3.5-3.5c0,0,0,0,0,0v-9.8c0-1.9,1.6-3.5,3.5-3.5
		c0,0,0,0,0,0h11.2V6.6H161.8z M158.3,26.5c0.6,0,1.1-0.5,1.1-1.1v-9.8c0-0.6-0.5-1.1-1.1-1.1h-10.1c-0.6,0-1.1,0.5-1.1,1.1v9.8
		c0,0.6,0.5,1.1,1.1,1.1L158.3,26.5z"/>
	<path id="Path_48" class="st0" d="M181.4,15.6v6.1h-14.8v3.7c0,0.6,0.5,1.1,1.1,1.1h13.6v2.3h-13.6c-1.9,0-3.5-1.6-3.5-3.5
		c0,0,0,0,0,0v-9.8c0-1.9,1.6-3.5,3.5-3.5c0,0,0,0,0,0h10.1C179.8,12.1,181.4,13.7,181.4,15.6C181.4,15.6,181.4,15.6,181.4,15.6
		L181.4,15.6z M179,19.3v-3.7c0-0.6-0.5-1.1-1.1-1.1c0,0,0,0,0,0h-10.1c-0.6,0-1.1,0.5-1.1,1.1v3.7H179z"/>
	<path id="Path_49" class="st0" d="M110.7,33.6V56H97.1c-1.9,0-3.5-1.5-3.5-3.5c0,0,0,0,0,0v-9.8c0-1.9,1.6-3.5,3.5-3.5c0,0,0,0,0,0
		h11.2v-5.5H110.7z M107.2,53.6c0.6,0,1.1-0.5,1.1-1.1v-9.8c0-0.6-0.5-1.1-1.1-1.1H97.1c-0.6,0-1.1,0.5-1.1,1.1v9.8
		c0,0.6,0.5,1.1,1.1,1.1L107.2,53.6z"/>
	<path id="Path_50" class="st0" d="M127.1,62.6h-10.5v-2.4h10.5c0.6,0,1.1-0.5,1.1-1.1V56H117c-1.9,0-3.5-1.6-3.5-3.5c0,0,0,0,0,0
		V39.2h2.4v13.3c0,0.6,0.5,1.1,1.1,1.1h10.1c0.6,0,1.1-0.5,1.1-1.1V39.2h2.4v19.9c0,1.9-1.5,3.5-3.4,3.6
		C127.2,62.6,127.1,62.6,127.1,62.6L127.1,62.6z"/>
	<path id="Path_51" class="st0" d="M150.4,42.6V56H148V42.6c0-0.6-0.5-1.1-1.1-1.1h-10.1c-0.6,0-1.1,0.5-1.2,1.1V56h-2.4V39.1h13.6
		C148.8,39.1,150.4,40.7,150.4,42.6C150.4,42.6,150.4,42.6,150.4,42.6L150.4,42.6z"/>
	<path id="Path_52" class="st0" d="M170.5,42.6V56h-13.6c-1.9,0-3.5-1.6-3.5-3.5c0,0,0,0,0,0v-6.1h14.7v-3.7c0-0.6-0.5-1.1-1.1-1.1
		h-13.6v-2.4H167C168.9,39.1,170.5,40.7,170.5,42.6C170.5,42.6,170.5,42.6,170.5,42.6z M168.1,48.7h-12.4v3.7c0,0.6,0.5,1.1,1.1,1.1
		h11.2V48.7z"/>
	<path id="Path_53" class="st0" d="M198.7,42.6V56h-2.3V42.6c0-0.6-0.5-1.1-1.2-1.1h-7c-0.6,0-1.1,0.5-1.1,1.1V56h-2.4V42.6
		c0-0.6-0.5-1.1-1.1-1.1h-7c-0.6,0-1.1,0.5-1.1,1.1V56H173V39.1h22.2C197.1,39.1,198.7,40.7,198.7,42.6
		C198.7,42.6,198.7,42.6,198.7,42.6L198.7,42.6z"/>
	<path id="Path_54" class="st0" d="M203.7,33.6V36h-2.4v-2.4H203.7z M201.3,39.1h2.4V56h-2.4V39.1z"/>
	<path id="Path_55" class="st0" d="M224,53.6V56h-13.6c-1.9,0-3.5-1.6-3.5-3.5c0,0,0,0,0,0v-9.8c0-1.9,1.6-3.5,3.5-3.5l0,0H224v2.4
		h-13.6c-0.6,0-1.1,0.5-1.1,1.1v9.8c0,0.6,0.5,1.1,1.1,1.1H224z"/>
</g>
</svg>
