<svg xmlns="http://www.w3.org/2000/svg" viewBox="0 0 800 800">
  <defs>
    <style>
      .cls-1 {
        fill: none;
      }

      .cls-2 {
        fill: #e3e3e3;
        stroke: #dddada;
        stroke-linecap: round;
        stroke-miterlimit: 10;
        stroke-width: 2px;
      }
    </style>
  </defs>
  <g id="_172627_-_male_user" data-name="172627 - male user" transform="translate(-0.05)">
    <rect id="Rectangle_52" data-name="Rectangle 52" class="cls-1" width="800" height="800" transform="translate(0.05)"/>
    <path id="Path_162" data-name="Path 162" class="cls-2" d="M419.529,489.4c-2.517-27.787-1.551-47.179-1.551-72.57,12.583-6.6,35.129-48.7,38.938-84.257,9.894-.81,25.493-10.463,30.061-48.575,2.465-20.461-7.326-31.976-13.29-35.6,16.1-48.42,49.539-198.215-61.846-213.694C400.379,14.578,371.025,4.391,332.88,4.391,180.265,7.2,161.856,119.641,195.313,248.406c-5.947,3.62-15.737,15.135-13.29,35.6,4.585,38.112,20.167,47.765,30.061,48.575,3.792,35.544,27.234,77.655,39.852,84.257,0,25.391.948,44.783-1.568,72.57C220.168,570.593,16.411,547.805,7,704.391H662C652.606,547.805,449.728,570.593,419.529,489.4Z" transform="translate(65.55 67.55)"/>
  </g>
</svg>
